<svg width="24" height="24" viewBox="0 0 24 24" fill="none" xmlns="http://www.w3.org/2000/svg">
<path d="M20.1188 19.0001L16.8388 15.7801C18.0193 14.3625 18.6636 12.5748 18.6588 10.7301C18.6588 9.16165 18.1937 7.62846 17.3224 6.32438C16.451 5.0203 15.2125 4.00389 13.7635 3.40369C12.3145 2.80348 10.72 2.64644 9.18177 2.95243C7.6435 3.25841 6.23051 4.01367 5.12147 5.1227C4.01244 6.23173 3.25719 7.64472 2.9512 9.18299C2.64522 10.7213 2.80226 12.3157 3.40247 13.7647C4.00267 15.2137 5.01908 16.4522 6.32316 17.3236C7.62724 18.195 9.16043 18.6601 10.7288 18.6601C12.6018 18.6622 14.4139 17.9955 15.8388 16.7801L19.0788 20.0201C19.2195 20.1605 19.4101 20.2394 19.6088 20.2394C19.8076 20.2394 19.9982 20.1605 20.1388 20.0201C20.2648 19.8789 20.3327 19.6953 20.329 19.5061C20.3253 19.317 20.2502 19.1362 20.1188 19.0001ZM4.33883 10.7101C4.33883 9.43832 4.71594 8.19514 5.42248 7.13774C6.12902 6.08033 7.13325 5.25618 8.30818 4.76951C9.48311 4.28284 10.776 4.1555 12.0233 4.4036C13.2706 4.65171 14.4163 5.2641 15.3155 6.16336C16.2148 7.06261 16.8272 8.20832 17.0753 9.45562C17.3234 10.7029 17.196 11.9958 16.7094 13.1707C16.2227 14.3456 15.3986 15.3499 14.3411 16.0564C13.2837 16.7629 12.0406 17.1401 10.7688 17.1401C9.06349 17.1401 7.42799 16.4626 6.22214 15.2567C5.01628 14.0509 4.33883 12.4154 4.33883 10.7101V10.7101Z" fill="#4B4B4B"/>
</svg>
