<svg width="24" height="24" viewBox="0 0 24 24" fill="none" xmlns="http://www.w3.org/2000/svg">
<g clip-path="url(#clip0_253_10685)">
<path d="M3.55 18.98C2.49 18.98 1.75 18.24 1.75 17.1V13.83C1.75 13.15 1.94 12.49 2.31 11.92L3.51 10.06C3.97 9.35004 4.76 8.92004 5.61 8.92004H5.95" stroke="#141414" stroke-width="1.5" stroke-miterlimit="10" stroke-linecap="round"/>
<path d="M10.84 8.92004C12.65 8.92004 14.37 9.73004 15.51 11.14L16.75 12.67L20.81 13.68C21.36 13.82 21.75 14.32 21.75 14.89V17.1C21.75 18.21 21.05 18.98 20.02 18.98" stroke="#141414" stroke-width="1.5" stroke-miterlimit="10" stroke-linecap="round"/>
<path d="M17.3799 21.16C18.5899 21.16 19.5699 20.18 19.5699 18.97C19.5699 17.76 18.5899 16.78 17.3799 16.78C16.1699 16.78 15.1899 17.76 15.1899 18.97C15.1899 20.18 16.1699 21.16 17.3799 21.16Z" stroke="#141414" stroke-width="1.5" stroke-linecap="round" stroke-linejoin="round"/>
<path d="M5.75006 21.16C6.96006 21.16 7.94006 20.18 7.94006 18.97C7.94006 17.76 6.96006 16.78 5.75006 16.78C4.54006 16.78 3.56006 17.76 3.56006 18.97C3.56006 20.18 4.54006 21.16 5.75006 21.16Z" stroke="#141414" stroke-width="1.5" stroke-linecap="round" stroke-linejoin="round"/>
<path d="M2.21997 12.67H16.76" stroke="#141414" stroke-width="1.5" stroke-miterlimit="10" stroke-linecap="round"/>
<path d="M8.46997 18.98H15.04" stroke="#141414" stroke-width="1.5" stroke-miterlimit="10" stroke-linecap="round"/>
<path d="M8.38998 8.24C8.38998 6.96 10.06 6.43 10.06 5.16C10.06 4.31 9.30998 3.62 8.38998 3.62C7.57998 3.62 6.86998 4.16 6.72998 4.87M8.37998 10.29V9.87" stroke="#141414" stroke-width="1.25" stroke-linecap="round" stroke-linejoin="round"/>
</g>
<defs>
<clipPath id="clip0_253_10685">
<rect width="21.5" height="18.91" fill="white" transform="translate(1 3)"/>
</clipPath>
</defs>
</svg>
