<svg width="24" height="24" viewBox="0 0 24 24" fill="none" xmlns="http://www.w3.org/2000/svg">
<g clip-path="url(#clip0_253_10675)">
<path d="M6.87 8.5H5.61C4.76 8.5 3.97 8.93 3.51 9.65L2.31 11.51C1.94 12.08 1.75 12.74 1.75 13.42V16.69C1.75 17.83 2.49 18.57 3.55 18.57" stroke="#121212" stroke-width="1.5" stroke-linecap="round" stroke-linejoin="round"/>
<path d="M20.02 18.56C21.05 18.56 21.75 17.8 21.75 16.68V14.47C21.75 13.9 21.36 13.4 20.8 13.26L16.75 12.25L15.51 10.72C15.03 10.13 14.35 9.39 13.72 9" stroke="#121212" stroke-width="1.5" stroke-linecap="round" stroke-linejoin="round"/>
<path d="M17.38 20.75C18.59 20.75 19.57 19.77 19.57 18.56C19.57 17.35 18.59 16.37 17.38 16.37C16.17 16.37 15.19 17.35 15.19 18.56C15.19 19.77 16.17 20.75 17.38 20.75Z" stroke="#121212" stroke-width="1.5" stroke-linecap="round" stroke-linejoin="round"/>
<path d="M5.75 20.75C6.96 20.75 7.94 19.77 7.94 18.56C7.94 17.35 6.96 16.37 5.75 16.37C4.54 16.37 3.56 17.35 3.56 18.56C3.56 19.77 4.54 20.75 5.75 20.75Z" stroke="#121212" stroke-width="1.5" stroke-linecap="round" stroke-linejoin="round"/>
<path d="M2.21997 12.25H9.68997" stroke="#121212" stroke-width="1.5" stroke-linecap="round" stroke-linejoin="round"/>
<path d="M8.46997 18.5601H15.04" stroke="#121212" stroke-width="1.5" stroke-linecap="round" stroke-linejoin="round"/>
<path d="M12.87 3.75H9.37" stroke="#121212" stroke-width="1.5" stroke-linecap="round" stroke-linejoin="round"/>
<path d="M12.87 6.21997H9.37" stroke="#121212" stroke-width="1.5" stroke-linecap="round" stroke-linejoin="round"/>
<path d="M12.57 11.25L9.35999 8.65H9.79999C12.76 8.65 12.76 3.75 9.79999 3.75" stroke="#121212" stroke-width="1.5" stroke-linecap="round" stroke-linejoin="round"/>
</g>
<defs>
<clipPath id="clip0_253_10675">
<rect width="21.5" height="18.5" fill="white" transform="translate(1 3)"/>
</clipPath>
</defs>
</svg>
