<svg width="24" height="24" viewBox="0 0 24 24" fill="none" xmlns="http://www.w3.org/2000/svg">
<path d="M8.43 13.32H4.57C3.64 13.32 2.73 13.01 2 12.45" stroke="#141414" stroke-width="1.5" stroke-linecap="round" stroke-linejoin="round"/>
<path d="M11.0799 7.99995C12.1799 7.15995 13.5399 6.64995 15.0299 6.61995C18.7699 6.52995 21.8699 9.44995 21.9599 13.1599C22.0499 16.8699 19.0999 19.9399 15.3599 20.0299C11.6199 20.1199 8.51989 17.1999 8.42989 13.4899C8.40989 12.5599 8.56989 11.6799 8.89989 10.8699" stroke="#141414" stroke-width="1.5" stroke-linecap="round" stroke-linejoin="round"/>
<path d="M2 3H9.83C10.75 3 11.63 3.36 12.28 4L14.94 6.61" stroke="#141414" stroke-width="1.5" stroke-linecap="round" stroke-linejoin="round"/>
<path d="M9.43991 6.37L12.3199 9.22C13.0199 9.91 13.0199 11.04 12.3199 11.73C11.6199 12.42 10.4799 12.42 9.77991 11.73L7.83991 9.81C7.26991 10.36 6.48991 10.69 5.62991 10.69C4.76991 10.69 3.97991 10.35 3.40991 9.79" stroke="#141414" stroke-width="1.5" stroke-linecap="round" stroke-linejoin="round"/>
<path d="M15.6901 10.1899C16.4601 10.6399 16.7201 11.6199 16.2701 12.3899C15.8201 13.1599 14.8401 13.4199 14.0701 12.9699L14.4201 16.6699" stroke="#141414" stroke-width="1.5" stroke-linecap="round" stroke-linejoin="round"/>
<path d="M14.0701 12.97L16.7701 14.54" stroke="#141414" stroke-width="1.5" stroke-linecap="round" stroke-linejoin="round"/>
<path d="M14.8201 9.68005L18.7101 11.9401" stroke="#141414" stroke-width="1.5" stroke-linecap="round" stroke-linejoin="round"/>
</svg>
