<svg width="24" height="24" viewBox="0 0 24 24" fill="none" xmlns="http://www.w3.org/2000/svg">
<path d="M1 4.01001H5.16C6.26 4.01001 7.25 4.68001 7.66 5.69001L9.58 10.45C9.64 10.61 9.68 10.78 9.68 10.95V17.21C9.68 17.95 9.08 18.55 8.34 18.55H1" stroke="#141414" stroke-width="1.5" stroke-linejoin="round"/>
<path d="M9.67031 16.24V20.66C9.67031 21.46 9.02031 22.11 8.22031 22.11H6.77031C5.97031 22.11 5.32031 21.46 5.32031 20.66V18.54" stroke="#141414" stroke-width="1.5" stroke-miterlimit="10" stroke-linecap="round"/>
<path d="M7.28031 14.39C7.28031 13.71 6.73031 13.16 6.05031 13.16C5.37031 13.16 4.82031 13.71 4.82031 14.39C4.82031 15.07 5.37031 15.62 6.05031 15.62C6.73031 15.62 7.28031 15.07 7.28031 14.39Z" fill="#141414"/>
<path d="M1 10.24C5.27 10.31 10.76 10.92 10.76 10.92" stroke="#141414" stroke-width="1.5" stroke-linejoin="round"/>
<path d="M9.46045 10.79C10.2604 10.87 10.7604 10.92 10.7604 10.92" stroke="#141414" stroke-width="1.5" stroke-linecap="round" stroke-linejoin="round"/>
<path d="M23.0003 18.54H15.6803C14.9403 18.54 14.3403 17.94 14.3403 17.2V10.94C14.3403 10.77 14.3703 10.6 14.4403 10.44L16.3603 5.68C16.7703 4.67 17.7603 4 18.8603 4H23.0203" stroke="#141414" stroke-width="1.5" stroke-linejoin="round"/>
<path d="M18.6801 18.54V20.66C18.6801 21.46 18.0301 22.11 17.2301 22.11H15.7801C14.9801 22.11 14.3301 21.46 14.3301 20.66V16.24" stroke="#141414" stroke-width="1.5" stroke-miterlimit="10" stroke-linecap="round"/>
<path d="M13.25 10.92C13.25 10.92 18.73 10.31 23 10.24" stroke="#141414" stroke-width="1.5" stroke-linejoin="round"/>
<path d="M13.25 10.92C13.25 10.92 13.74 10.87 14.55 10.79" stroke="#141414" stroke-width="1.5" stroke-linecap="round" stroke-linejoin="round"/>
<path d="M17.5703 14.39H19.4303" stroke="#141414" stroke-width="1.5" stroke-miterlimit="10" stroke-linecap="round"/>
</svg>
