<svg width="16" height="16" viewBox="0 0 16 16" fill="none" xmlns="http://www.w3.org/2000/svg">
<path d="M9.62 14H6.38C6.10667 14 5.88 13.7733 5.88 13.5V9.07333L2.15333 5.48667C2.05333 5.39333 2 5.26 2 5.12667V2.5C2 2.22667 2.22667 2 2.5 2H13.5C13.7733 2 14 2.22667 14 2.5V5.12667C14 5.26 13.9467 5.39333 13.8467 5.48667L10.12 9.07333V13.5C10.12 13.7733 9.89333 14 9.62 14ZM6.88667 13H9.12V8.86C9.12 8.72667 9.17333 8.59333 9.27333 8.5L13 4.91333V3H3V4.91333L6.72667 8.5C6.82667 8.59333 6.88 8.72667 6.88 8.86V13H6.88667Z" fill="#121212"/>
</svg>
