<svg width="12" height="12" viewBox="0 0 12 12" fill="none" xmlns="http://www.w3.org/2000/svg">
<g clip-path="url(#clip0_271_2115)">
<path d="M6.54252 1.31576L7.69756 3.65647C7.78506 3.83585 7.95569 3.95836 8.15258 3.98461L10.7339 4.36087C11.2283 4.43087 11.4252 5.04339 11.0664 5.38903L9.19824 7.2091C9.05386 7.3491 8.99261 7.54598 9.02323 7.74286L9.46512 10.3155C9.54825 10.8098 9.03198 11.1861 8.59009 10.9499L6.28001 9.73793C6.105 9.64606 5.895 9.64606 5.71999 9.73793L3.40991 10.9499C2.96802 11.1817 2.44738 10.8055 2.53488 10.3155L2.97677 7.74286C3.01177 7.54598 2.94614 7.3491 2.80176 7.2091L0.933572 5.38903C0.57481 5.03902 0.771691 4.43087 1.26608 4.36087L3.84742 3.98461C4.04431 3.95398 4.21494 3.83148 4.30244 3.65647L5.45748 1.31576C5.68061 0.865123 6.31939 0.865123 6.53814 1.31576H6.54252Z" fill="#FFAB00"/>
</g>
<defs>
<clipPath id="clip0_271_2115">
<rect width="12" height="12" fill="white"/>
</clipPath>
</defs>
</svg>
