<svg width="20" height="20" viewBox="0 0 20 20" fill="none" xmlns="http://www.w3.org/2000/svg">
<path d="M9.91925 9.67456C10.7039 9.67456 11.3399 9.03851 11.3399 8.2539C11.3399 7.4693 10.7039 6.83325 9.91925 6.83325C9.13464 6.83325 8.4986 7.4693 8.4986 8.2539C8.4986 9.03851 9.13464 9.67456 9.91925 9.67456Z" fill="#121212"/>
<path fill-rule="evenodd" clip-rule="evenodd" d="M9.92031 3.95837C9.35558 3.95837 8.79641 4.06971 8.27481 4.28603C7.7532 4.50236 7.27934 4.81945 6.88037 5.21912C6.48142 5.61877 6.1652 6.09318 5.94978 6.61519C5.73437 7.13719 5.62401 7.69653 5.62501 8.26125C5.62501 10.2124 6.73097 11.9597 7.92168 13.2636C8.50942 13.9072 9.09893 14.4222 9.54174 14.7761C9.68758 14.8927 9.81697 14.9914 9.92446 15.071C10.0311 14.9937 10.1591 14.8979 10.3033 14.7848C10.7453 14.438 11.3338 13.9317 11.9206 13.2943C13.1077 12.0047 14.2156 10.2584 14.2156 8.26235C14.2166 7.69765 14.1062 7.13721 13.8908 6.61519C13.6754 6.09318 13.3592 5.61877 12.9602 5.21912C12.5613 4.81945 12.0874 4.50236 11.5658 4.28603C11.0442 4.0697 10.485 3.95837 9.92031 3.95837ZM15.4656 8.26345C15.4669 7.5344 15.3244 6.81227 15.0463 6.13836C14.7682 5.46446 14.3599 4.85198 13.8449 4.33601C13.3298 3.82006 12.7181 3.41068 12.0446 3.13139C11.3712 2.8521 10.6493 2.70837 9.92031 2.70837C9.19128 2.70837 8.46939 2.8521 7.79595 3.13139C7.12251 3.41068 6.51076 3.82006 5.99571 4.33601C5.48065 4.85198 5.0724 5.46446 4.7943 6.13836C4.51626 6.81212 4.3738 7.53405 4.37501 8.26289C4.37521 10.6774 5.72929 12.7165 6.99864 14.1065C7.64097 14.8099 8.28154 15.3691 8.76129 15.7526C9.00163 15.9447 9.20286 16.0937 9.34545 16.1956C9.41677 16.2466 9.47352 16.2858 9.51326 16.3129L9.55985 16.3443L9.57303 16.353L9.57699 16.3556L9.57831 16.3565C9.57851 16.3566 9.57917 16.3571 9.92031 15.8334L9.57831 16.3565C9.78331 16.49 10.0482 16.4922 10.2549 16.3613L9.92031 15.8334C10.2549 16.3613 10.2547 16.3614 10.2549 16.3613L10.2571 16.3599L10.2612 16.3573L10.2744 16.3487L10.3213 16.3179C10.3612 16.2914 10.4181 16.253 10.4896 16.2031C10.6325 16.1032 10.8342 15.9572 11.0749 15.7682C11.5555 15.3912 12.197 14.8396 12.8403 14.1409C14.1131 12.7582 15.4652 10.7195 15.4656 8.26345Z" fill="#121212"/>
</svg>
