<svg width="24" height="24" viewBox="0 0 24 24" fill="none" xmlns="http://www.w3.org/2000/svg">
<path d="M19.37 15.33V16.17C19.37 16.81 18.84 17.34 18.2 17.34H4.11995C3.46995 17.34 2.94995 16.82 2.94995 16.17V11.68C2.94995 11.53 2.97995 11.38 3.02995 11.25L4.69995 6.67996C5.05995 5.78996 5.91995 5.20996 6.87995 5.20996H7.99995" stroke="white" stroke-width="1.125" stroke-linecap="round" stroke-linejoin="round"/>
<path d="M15.58 17.3299V19.1799C15.58 19.8799 16.15 20.4399 16.84 20.4399H18.1C18.8 20.4399 19.36 19.8699 19.36 19.1799V15.3199" stroke="white" stroke-width="1.125" stroke-miterlimit="10" stroke-linecap="round"/>
<path d="M6.73996 17.3299V19.1799C6.73996 19.8799 6.16996 20.4399 5.47996 20.4399H4.21996C3.51996 20.4399 2.95996 19.8699 2.95996 19.1799V15.3199" stroke="white" stroke-width="1.125" stroke-miterlimit="10" stroke-linecap="round"/>
<path d="M6.10998 15.35C6.80998 15.35 7.36998 14.78 7.36998 14.09C7.36998 13.4 6.79998 12.83 6.10998 12.83C5.41998 12.83 4.84998 13.4 4.84998 14.09C4.84998 14.78 5.41998 15.35 6.10998 15.35Z" fill="white"/>
<path d="M2 11.35C2 11.35 5.02 10.99 9.06 10.89" stroke="white" stroke-width="1.125" stroke-linecap="round" stroke-linejoin="round"/>
<path d="M16.1299 13.62C16.3799 13.75 16.6799 13.75 16.9299 13.62C18.2699 12.92 22.4899 10.4 22.4899 6.29C22.4899 4.48 21.0399 3.01 19.2299 3C18.1399 3.01 17.1299 3.56 16.5299 4.46C15.9299 3.56 14.9099 3.01 13.8299 3C12.0199 3.01 10.5699 4.48 10.5699 6.29C10.5699 10.4 14.7899 12.93 16.1299 13.62Z" stroke="white" stroke-width="1.125" stroke-linecap="round" stroke-linejoin="round"/>
</svg>
